# xmcd
#
# Track frame offsets:
#	150
#	23569
#	40746
#	55120
#	79193
#	97593
#	127796
#	149110
#	181936
#	197304
#	216199
#	253964
#	271146
#	287069
#
# Disc length: 4074 seconds
#
# Revision: 1
# Processed by: cddbd v1.5.2PL0 Copyright (c) Steve Scherf et al.
# Submitted via: EZCDAudioConverter 8.2.1.1
#
DISCID=bc0fe80e
DTITLE=Fred Chapellier - Plays Peter Green
DYEAR=2018
DGENRE=Blues
TTITLE0=If You Be My Baby
TTITLE1=Like It This Way
TTITLE2=Long Grey Mare
TTITLE3=Merry Go Round
TTITLE4=Rolling Man
TTITLE5=Black Magic Woman
TTITLE6=Looking for Somebody
TTITLE7=A Fool No More
TTITLE8=Fleetwood Mac Theme
TTITLE9=Oh Well
TTITLE10=Love That Burns
TTITLE11=Watch Out
TTITLE12=Albatross
TTITLE13=Stop Messing Around
EXTD=
EXTT0=
EXTT1=
EXTT2=
EXTT3=
EXTT4=
EXTT5=
EXTT6=
EXTT7=
EXTT8=
EXTT9=
EXTT10=
EXTT11=
EXTT12=
EXTT13=
PLAYORDER=
